<?xml version="1.0" encoding="UTF-8"?>
<svg id="Layer_1" data-name="Layer 1" xmlns="http://www.w3.org/2000/svg" viewBox="0 0 1920 1080">
  <defs>
    <style>
      .cls-1, .cls-2 {
        fill: #010101;
      }

      .cls-2 {
        opacity: .5;
      }
    </style>
  </defs>
  <g>
    <path class="cls-2" d="M523.99,403.9c.15,2.77.21,5.36.2,8.2-.24,90.6-80.51,186.02-179.3,213.14-64.44,17.69-120.81,1.96-152.17-36.29,4.58,85.34,82.51,132.76,178.19,106.5,98.78-27.11,179.06-122.54,179.3-213.14.08-31.49-9.51-58.04-26.22-78.42Z"/>
    <path class="cls-1" d="M459.8,377.31h-.09c-9.81,0-20.07,1.3-30.78,4.03-64.76,16.49-119.21,80.11-119.37,139.52-.01,5.43.42,10.64,1.26,15.62.23,1.35,1.27,1.97,2.49,1.97,1.65,0,3.62-1.13,4.38-3.13,16.97-44.59,59.35-84.54,108.87-98.13,11.63-3.19,22.85-4.71,33.44-4.71,23.62,0,44.07,7.57,58.74,21.01,3.52-13.74,5.41-27.62,5.44-41.4,0-2.77-.06-5.51-.2-8.2-14.82-16.91-37.48-26.58-64.19-26.58Z"/>
    <path class="cls-1" d="M550.21,481.8v-.08s0-.06,0-.1c0-.03,0-.06,0-.08,0-.03,0-.06,0-.09,0-.03,0-.06,0-.08,0-.03,0-.05,0-.08,0-.03,0-.06,0-.09,0-.02,0-.04,0-.05,0-.08,0-.16,0-.24,0-.01,0-.03,0-.04,0-.04,0-.08,0-.12,0-.02,0-.03,0-.05,0-.04,0-.08,0-.13,0-.01,0-.03,0-.04,0-.04,0-.09,0-.13,0,0,0-.02,0-.03-.27-26.63-7.53-49.79-20.15-68.5l-.22-.34s-.32-.47-.48-.71c-1.65-2.43-3.44-4.74-5.36-6.93.14,2.7.21,5.43.2,8.2-.04,13.77-1.92,27.66-5.44,41.4,9.11,8.36,15.99,18.98,20.01,31.48,2.66,8.26,4.07,17.33,4.04,27.1-.03,13.19-2.68,26.54-7.48,39.51,9.27-22.01,14.55-44.89,14.87-67.5,0,0,0,0,0-.01,0-.04,0-.08,0-.12,0,0,0-.01,0-.02,0-.04,0-.08,0-.12,0,0,0-.02,0-.02,0-.04,0-.07,0-.11,0-.01,0-.02,0-.03,0-.03,0-.07,0-.1,0-.02,0-.02,0-.04,0-.03,0-.06,0-.09,0-.02,0-.03,0-.05,0-.03,0-.06,0-.08,0-.02,0-.03,0-.05,0-.03,0-.05,0-.08,0-.02,0-.04,0-.06,0-.02,0-.05,0-.07,0-.02,0-.04,0-.07,0-.02,0-.04,0-.06,0-.03,0-.04,0-.07,0-.03,0-.05,0-.08,0-.02,0-.04,0-.06,0-.02,0-.04,0-.07,0-.02,0-.05,0-.07,0-.01,0-.03,0-.04,0-.08,0-.15,0-.23,0-.06,0-.12,0-.17v-.06s0-.08,0-.11v-.07s0-.07,0-.1Z"/>
    <path class="cls-1" d="M289.66,411.62c-1.71,0-3.67.66-5.65,2.22-57.34,45.13-94.42,112.59-91.29,175.11,17.45,21.27,42.65,35.58,72.67,41.04-13.46-16.92-22.18-38.18-24.62-63.06-4.81-49.07,15.72-101.82,51.9-145.02,4.4-5.26,1.68-10.28-3.02-10.28Z"/>
    <path class="cls-1" d="M192.72,588.95c.11,2.17.27,4.33.47,6.48,6.56,65.67,57.74,107.25,126.37,107.25,16.25,0,33.5-2.34,51.34-7.23,5.31-1.46,10.55-3.11,15.74-4.95,9.32-3.35,18.47-7.18,27.28-11.63-12.79,2.72-25.23,3.89-37.09,3.89-40.8,0-75.49-15.3-99.95-40.4-4.14-3.82-7.98-7.95-11.5-12.37-30.02-5.46-55.22-19.77-72.67-41.04"/>
    <path class="cls-1" d="M376.85,682.76c-40.8,0-75.49-15.3-99.95-40.4-4.14-3.82-7.98-7.95-11.5-12.37-30.02-5.46-55.22-19.77-72.67-41.04.11,2.19.27,4.38.48,6.56,6.59,65.62,57.76,107.17,126.37,107.17,16.25,0,33.5-2.34,51.34-7.23,5.29-1.45,10.54-3.1,15.72-4.94,9.33-3.36,18.49-7.18,27.31-11.64-12.79,2.72-25.23,3.88-37.09,3.88Z"/>
  </g>
  <g>
    <path class="cls-1" d="M726.48,454.6c32.88,0,52.82,13.99,64.71,30.08l-24.13,22.39c-9.44-13.29-22.39-19.94-38.83-19.94-30.78,0-51.07,23.09-51.07,55.96s20.29,56.32,51.07,56.32c16.44,0,29.38-7,38.83-19.94l24.13,22.39c-11.89,16.09-31.83,30.08-64.71,30.08-51.42,0-87.45-37.43-87.45-88.85s36.03-88.49,87.45-88.49Z"/>
    <path class="cls-1" d="M898.58,454.6c50.72,0,83.25,38.83,83.25,91.99v8.74h-130.47c2.8,25.54,22.04,46.52,53.87,46.52,16.44,0,36.03-6.64,47.92-18.54l16.79,24.13c-16.79,16.09-41.63,24.48-68.56,24.48-50.72,0-88.49-35.33-88.49-88.85,0-48.97,35.68-88.49,85.7-88.49ZM851.01,529.45h95.14c-.7-19.94-14.34-44.77-47.57-44.77-31.48,0-45.82,24.13-47.57,44.77Z"/>
    <path class="cls-1" d="M1033.25,650.92c13.64,15.74,31.13,21.69,53.52,21.69,24.14,0,50.02-17.58,50.02-52.21v-20.29c-12.94,16.79-32.18,30.43-54.22,30.43-43.02,0-74.85-33.58-74.85-89.2s31.48-86.74,74.85-86.74c21.34,0,40.58,9.79,54.22,27.63v-27.63h36.73v164.4c0,60.86-45.12,83.69-86.75,83.69-28.68,0-50.02-6.3-70.66-25.19l17.14-26.58ZM1136.79,509.87c-8.04-12.59-26.23-22.74-43.37-22.74-29.03,0-47.57,21.69-47.57,54.22s18.54,54.22,47.57,54.22c17.14,0,35.33-10.14,43.37-22.74v-62.96Z"/>
    <path class="cls-1" d="M1284.43,454.6c50.72,0,83.25,38.83,83.25,91.99v8.74h-130.47c2.8,25.54,22.04,46.52,53.87,46.52,16.44,0,36.03-6.64,47.92-18.54l16.79,24.13c-16.79,16.09-41.62,24.48-68.56,24.48-50.72,0-88.49-35.33-88.49-88.85,0-48.97,35.68-88.49,85.7-88.49ZM1236.86,529.45h95.14c-.7-19.94-14.34-44.77-47.57-44.77-31.48,0-45.82,24.13-47.57,44.77Z"/>
    <path class="cls-1" d="M1451.66,558.14l-23.43,24.13v47.69h-36.73v-252.35h36.73v162.7l77.57-85.7h45.47l-73.38,80.8,73.38,94.56h-46.17l-53.44-71.82Z"/>
    <path class="cls-1" d="M1690.73,604.66c-12.94,16.79-32.53,27.28-54.22,27.28-43.37,0-75.2-32.88-75.2-88.5s31.48-88.84,75.2-88.84c20.99,0,40.92,9.79,54.22,27.63v-27.63h36.73v175.35h-36.73v-25.3ZM1690.73,510.22c-8.4-12.59-26.23-22.74-43.72-22.74-29.03,0-47.57,23.08-47.57,55.96s18.54,55.97,47.57,55.97c17.49,0,35.33-9.8,43.72-22.39v-66.81Z"/>
  </g>
</svg>